<mxfile host="app.diagrams.net" modified="2024-03-11T08:29:03.121Z" agent="Mozilla/5.0 (Windows NT 10.0; Win64; x64) AppleWebKit/537.36 (KHTML, like Gecko) Chrome/122.0.0.0 Safari/537.36" etag="MCi7e6dbwqKbvbhqHYOS" version="24.0.4" type="device">
  <diagram name="Page-1" id="2a216829-ef6e-dabb-86c1-c78162f3ba2b">
    <mxGraphModel dx="1615" dy="-231" grid="1" gridSize="10" guides="1" tooltips="1" connect="1" arrows="1" fold="1" page="1" pageScale="1" pageWidth="850" pageHeight="1100" background="none" math="0" shadow="0">
      <root>
        <mxCell id="0" />
        <mxCell id="1" parent="0" />
        <mxCell id="fpaLrNx99ippCSUbvsSf-1" value="Client" style="swimlane;html=1;startSize=20;fontStyle=0;collapsible=0;horizontal=0;swimlaneLine=1;swimlaneFillColor=#ffffff;strokeWidth=2;" vertex="1" parent="1">
          <mxGeometry x="72.5" y="1200" width="950" height="170" as="geometry" />
        </mxCell>
        <mxCell id="fpaLrNx99ippCSUbvsSf-2" value="" style="points=[[0.145,0.145,0],[0.5,0,0],[0.855,0.145,0],[1,0.5,0],[0.855,0.855,0],[0.5,1,0],[0.145,0.855,0],[0,0.5,0]];shape=mxgraph.bpmn.event;html=1;verticalLabelPosition=bottom;labelBackgroundColor=#ffffff;verticalAlign=top;align=center;perimeter=ellipsePerimeter;outlineConnect=0;aspect=fixed;outline=standard;symbol=general;" vertex="1" parent="fpaLrNx99ippCSUbvsSf-1">
          <mxGeometry x="60" y="60" width="50" height="50" as="geometry" />
        </mxCell>
        <mxCell id="fpaLrNx99ippCSUbvsSf-39" value="" style="points=[[0.145,0.145,0],[0.5,0,0],[0.855,0.145,0],[1,0.5,0],[0.855,0.855,0],[0.5,1,0],[0.145,0.855,0],[0,0.5,0]];shape=mxgraph.bpmn.event;html=1;verticalLabelPosition=bottom;labelBackgroundColor=#ffffff;verticalAlign=top;align=center;perimeter=ellipsePerimeter;outlineConnect=0;aspect=fixed;outline=end;symbol=terminate2;" vertex="1" parent="fpaLrNx99ippCSUbvsSf-1">
          <mxGeometry x="870" y="70" width="50" height="50" as="geometry" />
        </mxCell>
        <mxCell id="fpaLrNx99ippCSUbvsSf-5" value="Server" style="swimlane;html=1;startSize=20;fontStyle=0;collapsible=0;horizontal=0;swimlaneLine=1;swimlaneFillColor=#ffffff;strokeWidth=2;" vertex="1" parent="1">
          <mxGeometry x="80" y="1410" width="950" height="180" as="geometry" />
        </mxCell>
        <mxCell id="fpaLrNx99ippCSUbvsSf-6" value="Odbierz sygnał o próbie zalogowania" style="points=[[0.25,0,0],[0.5,0,0],[0.75,0,0],[1,0.25,0],[1,0.5,0],[1,0.75,0],[0.75,1,0],[0.5,1,0],[0.25,1,0],[0,0.75,0],[0,0.5,0],[0,0.25,0]];shape=mxgraph.bpmn.task;whiteSpace=wrap;rectStyle=rounded;size=10;taskMarker=abstract;" vertex="1" parent="fpaLrNx99ippCSUbvsSf-5">
          <mxGeometry x="120" y="45" width="120" height="80" as="geometry" />
        </mxCell>
        <mxCell id="fpaLrNx99ippCSUbvsSf-7" value="" style="edgeStyle=elbowEdgeStyle;fontSize=12;html=1;endArrow=blockThin;endFill=1;rounded=0;exitX=1;exitY=0.5;exitDx=0;exitDy=0;exitPerimeter=0;entryX=0;entryY=0.5;entryDx=0;entryDy=0;entryPerimeter=0;" edge="1" parent="fpaLrNx99ippCSUbvsSf-5" source="fpaLrNx99ippCSUbvsSf-6" target="fpaLrNx99ippCSUbvsSf-35">
          <mxGeometry width="160" relative="1" as="geometry">
            <mxPoint x="300" y="10" as="sourcePoint" />
            <mxPoint x="300" y="85" as="targetPoint" />
          </mxGeometry>
        </mxCell>
        <mxCell id="fpaLrNx99ippCSUbvsSf-40" style="edgeStyle=orthogonalEdgeStyle;rounded=0;orthogonalLoop=1;jettySize=auto;html=1;entryX=0;entryY=0.5;entryDx=0;entryDy=0;entryPerimeter=0;" edge="1" parent="fpaLrNx99ippCSUbvsSf-5" source="fpaLrNx99ippCSUbvsSf-35" target="fpaLrNx99ippCSUbvsSf-41">
          <mxGeometry relative="1" as="geometry">
            <mxPoint x="500" y="85" as="targetPoint" />
          </mxGeometry>
        </mxCell>
        <mxCell id="fpaLrNx99ippCSUbvsSf-35" value="Zaloguj użytkownika" style="points=[[0.25,0,0],[0.5,0,0],[0.75,0,0],[1,0.25,0],[1,0.5,0],[1,0.75,0],[0.75,1,0],[0.5,1,0],[0.25,1,0],[0,0.75,0],[0,0.5,0],[0,0.25,0]];shape=mxgraph.bpmn.task;whiteSpace=wrap;rectStyle=rounded;size=10;taskMarker=abstract;" vertex="1" parent="fpaLrNx99ippCSUbvsSf-5">
          <mxGeometry x="310" y="45" width="120" height="80" as="geometry" />
        </mxCell>
        <mxCell id="fpaLrNx99ippCSUbvsSf-43" style="edgeStyle=orthogonalEdgeStyle;rounded=0;orthogonalLoop=1;jettySize=auto;html=1;entryX=0;entryY=0.5;entryDx=0;entryDy=0;entryPerimeter=0;" edge="1" parent="fpaLrNx99ippCSUbvsSf-5" source="fpaLrNx99ippCSUbvsSf-41" target="fpaLrNx99ippCSUbvsSf-95">
          <mxGeometry relative="1" as="geometry">
            <mxPoint x="620" y="85" as="targetPoint" />
          </mxGeometry>
        </mxCell>
        <mxCell id="fpaLrNx99ippCSUbvsSf-41" value="Informacje o użytkowniku" style="points=[[0.145,0.145,0],[0.5,0,0],[0.855,0.145,0],[1,0.5,0],[0.855,0.855,0],[0.5,1,0],[0.145,0.855,0],[0,0.5,0]];shape=mxgraph.bpmn.event;html=1;verticalLabelPosition=bottom;labelBackgroundColor=#ffffff;verticalAlign=top;align=center;perimeter=ellipsePerimeter;outlineConnect=0;aspect=fixed;outline=standard;symbol=message;" vertex="1" parent="fpaLrNx99ippCSUbvsSf-5">
          <mxGeometry x="500" y="60" width="50" height="50" as="geometry" />
        </mxCell>
        <mxCell id="fpaLrNx99ippCSUbvsSf-95" value="Nowy użytkownik?" style="points=[[0.25,0.25,0],[0.5,0,0],[0.75,0.25,0],[1,0.5,0],[0.75,0.75,0],[0.5,1,0],[0.25,0.75,0],[0,0.5,0]];shape=mxgraph.bpmn.gateway2;html=1;verticalLabelPosition=bottom;labelBackgroundColor=#ffffff;verticalAlign=top;align=center;perimeter=rhombusPerimeter;outlineConnect=0;outline=none;symbol=none;" vertex="1" parent="fpaLrNx99ippCSUbvsSf-5">
          <mxGeometry x="640" y="60" width="50" height="50" as="geometry" />
        </mxCell>
        <mxCell id="fpaLrNx99ippCSUbvsSf-99" value="Dodaj użytkownika" style="points=[[0.25,0,0],[0.5,0,0],[0.75,0,0],[1,0.25,0],[1,0.5,0],[1,0.75,0],[0.75,1,0],[0.5,1,0],[0.25,1,0],[0,0.75,0],[0,0.5,0],[0,0.25,0]];shape=mxgraph.bpmn.task;whiteSpace=wrap;rectStyle=rounded;size=10;taskMarker=abstract;" vertex="1" parent="fpaLrNx99ippCSUbvsSf-5">
          <mxGeometry x="780" y="50" width="120" height="80" as="geometry" />
        </mxCell>
        <mxCell id="fpaLrNx99ippCSUbvsSf-100" style="edgeStyle=orthogonalEdgeStyle;rounded=0;orthogonalLoop=1;jettySize=auto;html=1;entryX=0.019;entryY=0.437;entryDx=0;entryDy=0;entryPerimeter=0;" edge="1" parent="fpaLrNx99ippCSUbvsSf-5" source="fpaLrNx99ippCSUbvsSf-95" target="fpaLrNx99ippCSUbvsSf-99">
          <mxGeometry relative="1" as="geometry" />
        </mxCell>
        <mxCell id="fpaLrNx99ippCSUbvsSf-109" value="Tak" style="edgeLabel;html=1;align=center;verticalAlign=middle;resizable=0;points=[];" vertex="1" connectable="0" parent="fpaLrNx99ippCSUbvsSf-100">
          <mxGeometry x="0.0299" y="4" relative="1" as="geometry">
            <mxPoint as="offset" />
          </mxGeometry>
        </mxCell>
        <mxCell id="fpaLrNx99ippCSUbvsSf-21" value="" style="edgeStyle=elbowEdgeStyle;fontSize=12;html=1;endFill=0;startFill=0;endSize=6;startSize=6;dashed=1;dashPattern=1 4;endArrow=openThin;startArrow=none;rounded=0;entryX=0;entryY=0.5;entryDx=0;entryDy=0;entryPerimeter=0;exitX=0.5;exitY=1;exitDx=0;exitDy=0;exitPerimeter=0;" edge="1" parent="1" source="fpaLrNx99ippCSUbvsSf-2" target="fpaLrNx99ippCSUbvsSf-6">
          <mxGeometry width="160" relative="1" as="geometry">
            <mxPoint x="380" y="1520" as="sourcePoint" />
            <mxPoint x="540" y="1520" as="targetPoint" />
            <Array as="points">
              <mxPoint x="165" y="1400" />
            </Array>
          </mxGeometry>
        </mxCell>
        <mxCell id="fpaLrNx99ippCSUbvsSf-32" value="Logowanie" style="text;html=1;align=center;verticalAlign=middle;resizable=0;points=[];autosize=1;strokeColor=none;fillColor=none;" vertex="1" parent="1">
          <mxGeometry x="110" y="1148" width="80" height="30" as="geometry" />
        </mxCell>
        <mxCell id="fpaLrNx99ippCSUbvsSf-36" value="Zewnętrzny autoryzator" style="rounded=0;whiteSpace=wrap;html=1;" vertex="1" parent="1">
          <mxGeometry x="180" y="1740" width="730" height="60" as="geometry" />
        </mxCell>
        <mxCell id="fpaLrNx99ippCSUbvsSf-42" style="edgeStyle=orthogonalEdgeStyle;rounded=0;orthogonalLoop=1;jettySize=auto;html=1;entryX=0.5;entryY=1;entryDx=0;entryDy=0;entryPerimeter=0;dashed=1;" edge="1" parent="1" source="fpaLrNx99ippCSUbvsSf-36" target="fpaLrNx99ippCSUbvsSf-41">
          <mxGeometry relative="1" as="geometry">
            <Array as="points">
              <mxPoint x="550" y="1630" />
              <mxPoint x="605" y="1630" />
            </Array>
          </mxGeometry>
        </mxCell>
        <mxCell id="fpaLrNx99ippCSUbvsSf-72" value="Client" style="swimlane;html=1;startSize=20;fontStyle=0;collapsible=0;horizontal=0;swimlaneLine=1;swimlaneFillColor=#ffffff;strokeWidth=2;" vertex="1" parent="1">
          <mxGeometry x="72.5" y="1922" width="950" height="170" as="geometry" />
        </mxCell>
        <mxCell id="fpaLrNx99ippCSUbvsSf-73" value="" style="points=[[0.145,0.145,0],[0.5,0,0],[0.855,0.145,0],[1,0.5,0],[0.855,0.855,0],[0.5,1,0],[0.145,0.855,0],[0,0.5,0]];shape=mxgraph.bpmn.event;html=1;verticalLabelPosition=bottom;labelBackgroundColor=#ffffff;verticalAlign=top;align=center;perimeter=ellipsePerimeter;outlineConnect=0;aspect=fixed;outline=standard;symbol=general;" vertex="1" parent="fpaLrNx99ippCSUbvsSf-72">
          <mxGeometry x="60" y="60" width="50" height="50" as="geometry" />
        </mxCell>
        <mxCell id="fpaLrNx99ippCSUbvsSf-74" value="" style="points=[[0.145,0.145,0],[0.5,0,0],[0.855,0.145,0],[1,0.5,0],[0.855,0.855,0],[0.5,1,0],[0.145,0.855,0],[0,0.5,0]];shape=mxgraph.bpmn.event;html=1;verticalLabelPosition=bottom;labelBackgroundColor=#ffffff;verticalAlign=top;align=center;perimeter=ellipsePerimeter;outlineConnect=0;aspect=fixed;outline=end;symbol=terminate2;" vertex="1" parent="fpaLrNx99ippCSUbvsSf-72">
          <mxGeometry x="840" y="60" width="50" height="50" as="geometry" />
        </mxCell>
        <mxCell id="fpaLrNx99ippCSUbvsSf-75" value="Server" style="swimlane;html=1;startSize=20;fontStyle=0;collapsible=0;horizontal=0;swimlaneLine=1;swimlaneFillColor=#ffffff;strokeWidth=2;" vertex="1" parent="1">
          <mxGeometry x="72.5" y="2132" width="950" height="180" as="geometry" />
        </mxCell>
        <mxCell id="fpaLrNx99ippCSUbvsSf-76" value="Odbierz sygnał wyszukania połączenia" style="points=[[0.25,0,0],[0.5,0,0],[0.75,0,0],[1,0.25,0],[1,0.5,0],[1,0.75,0],[0.75,1,0],[0.5,1,0],[0.25,1,0],[0,0.75,0],[0,0.5,0],[0,0.25,0]];shape=mxgraph.bpmn.task;whiteSpace=wrap;rectStyle=rounded;size=10;taskMarker=abstract;" vertex="1" parent="fpaLrNx99ippCSUbvsSf-75">
          <mxGeometry x="120" y="45" width="120" height="80" as="geometry" />
        </mxCell>
        <mxCell id="fpaLrNx99ippCSUbvsSf-77" value="" style="edgeStyle=elbowEdgeStyle;fontSize=12;html=1;endArrow=blockThin;endFill=1;rounded=0;exitX=1;exitY=0.5;exitDx=0;exitDy=0;exitPerimeter=0;entryX=0;entryY=0.5;entryDx=0;entryDy=0;entryPerimeter=0;" edge="1" parent="fpaLrNx99ippCSUbvsSf-75" source="fpaLrNx99ippCSUbvsSf-76" target="fpaLrNx99ippCSUbvsSf-79">
          <mxGeometry width="160" relative="1" as="geometry">
            <mxPoint x="300" y="10" as="sourcePoint" />
            <mxPoint x="300" y="85" as="targetPoint" />
          </mxGeometry>
        </mxCell>
        <mxCell id="fpaLrNx99ippCSUbvsSf-78" style="edgeStyle=orthogonalEdgeStyle;rounded=0;orthogonalLoop=1;jettySize=auto;html=1;entryX=0;entryY=0.5;entryDx=0;entryDy=0;entryPerimeter=0;" edge="1" parent="fpaLrNx99ippCSUbvsSf-75" source="fpaLrNx99ippCSUbvsSf-79" target="fpaLrNx99ippCSUbvsSf-81">
          <mxGeometry relative="1" as="geometry">
            <mxPoint x="500" y="85" as="targetPoint" />
          </mxGeometry>
        </mxCell>
        <mxCell id="fpaLrNx99ippCSUbvsSf-79" value="Odczytaj dane z zewnętrznego serwisu" style="points=[[0.25,0,0],[0.5,0,0],[0.75,0,0],[1,0.25,0],[1,0.5,0],[1,0.75,0],[0.75,1,0],[0.5,1,0],[0.25,1,0],[0,0.75,0],[0,0.5,0],[0,0.25,0]];shape=mxgraph.bpmn.task;whiteSpace=wrap;rectStyle=rounded;size=10;taskMarker=abstract;" vertex="1" parent="fpaLrNx99ippCSUbvsSf-75">
          <mxGeometry x="310" y="45" width="120" height="80" as="geometry" />
        </mxCell>
        <mxCell id="fpaLrNx99ippCSUbvsSf-80" style="edgeStyle=orthogonalEdgeStyle;rounded=0;orthogonalLoop=1;jettySize=auto;html=1;entryX=0;entryY=0.5;entryDx=0;entryDy=0;entryPerimeter=0;" edge="1" parent="fpaLrNx99ippCSUbvsSf-75" source="fpaLrNx99ippCSUbvsSf-81" target="fpaLrNx99ippCSUbvsSf-82">
          <mxGeometry relative="1" as="geometry">
            <mxPoint x="640" y="85" as="targetPoint" />
          </mxGeometry>
        </mxCell>
        <mxCell id="fpaLrNx99ippCSUbvsSf-81" value="Informacje o połączeniach" style="points=[[0.145,0.145,0],[0.5,0,0],[0.855,0.145,0],[1,0.5,0],[0.855,0.855,0],[0.5,1,0],[0.145,0.855,0],[0,0.5,0]];shape=mxgraph.bpmn.event;html=1;verticalLabelPosition=bottom;labelBackgroundColor=#ffffff;verticalAlign=top;align=center;perimeter=ellipsePerimeter;outlineConnect=0;aspect=fixed;outline=standard;symbol=message;" vertex="1" parent="fpaLrNx99ippCSUbvsSf-75">
          <mxGeometry x="500" y="60" width="50" height="50" as="geometry" />
        </mxCell>
        <mxCell id="fpaLrNx99ippCSUbvsSf-82" value="Dokonaj processingu danych" style="points=[[0.25,0,0],[0.5,0,0],[0.75,0,0],[1,0.25,0],[1,0.5,0],[1,0.75,0],[0.75,1,0],[0.5,1,0],[0.25,1,0],[0,0.75,0],[0,0.5,0],[0,0.25,0]];shape=mxgraph.bpmn.task;whiteSpace=wrap;rectStyle=rounded;size=10;taskMarker=abstract;" vertex="1" parent="fpaLrNx99ippCSUbvsSf-75">
          <mxGeometry x="620" y="45" width="120" height="80" as="geometry" />
        </mxCell>
        <mxCell id="fpaLrNx99ippCSUbvsSf-83" value="Dane połączeń" style="shape=mxgraph.bpmn.data;labelPosition=center;verticalLabelPosition=bottom;align=center;verticalAlign=top;whiteSpace=wrap;size=15;html=1;bpmnTransferType=none;isCollection=1;fontSize=12;" vertex="1" parent="fpaLrNx99ippCSUbvsSf-75">
          <mxGeometry x="820" y="45" width="40" height="60" as="geometry" />
        </mxCell>
        <mxCell id="fpaLrNx99ippCSUbvsSf-84" style="edgeStyle=orthogonalEdgeStyle;rounded=0;orthogonalLoop=1;jettySize=auto;html=1;entryX=0.02;entryY=0.656;entryDx=0;entryDy=0;entryPerimeter=0;" edge="1" parent="fpaLrNx99ippCSUbvsSf-75" source="fpaLrNx99ippCSUbvsSf-82" target="fpaLrNx99ippCSUbvsSf-83">
          <mxGeometry relative="1" as="geometry" />
        </mxCell>
        <mxCell id="fpaLrNx99ippCSUbvsSf-85" value="" style="edgeStyle=elbowEdgeStyle;fontSize=12;html=1;endFill=0;startFill=0;endSize=6;startSize=6;dashed=1;dashPattern=1 4;endArrow=openThin;startArrow=none;rounded=0;exitX=0.5;exitY=1;exitDx=0;exitDy=0;exitPerimeter=0;entryX=0.001;entryY=0.469;entryDx=0;entryDy=0;entryPerimeter=0;" edge="1" source="fpaLrNx99ippCSUbvsSf-76" target="fpaLrNx99ippCSUbvsSf-93" parent="1">
          <mxGeometry width="160" relative="1" as="geometry">
            <mxPoint x="372.5" y="2232" as="sourcePoint" />
            <mxPoint x="262.5" y="2382" as="targetPoint" />
            <Array as="points">
              <mxPoint x="242.5" y="2302" />
            </Array>
          </mxGeometry>
        </mxCell>
        <mxCell id="fpaLrNx99ippCSUbvsSf-86" value="" style="edgeStyle=elbowEdgeStyle;fontSize=12;html=1;endFill=0;startFill=0;endSize=6;startSize=6;dashed=1;dashPattern=1 4;endArrow=openThin;startArrow=none;rounded=0;entryX=0;entryY=0.5;entryDx=0;entryDy=0;entryPerimeter=0;exitX=0.5;exitY=1;exitDx=0;exitDy=0;exitPerimeter=0;" edge="1" source="fpaLrNx99ippCSUbvsSf-73" target="fpaLrNx99ippCSUbvsSf-76" parent="1">
          <mxGeometry width="160" relative="1" as="geometry">
            <mxPoint x="372.5" y="2242" as="sourcePoint" />
            <mxPoint x="532.5" y="2242" as="targetPoint" />
            <Array as="points">
              <mxPoint x="157.5" y="2122" />
            </Array>
          </mxGeometry>
        </mxCell>
        <mxCell id="fpaLrNx99ippCSUbvsSf-87" value="Wyszukanie połączenia" style="text;html=1;align=center;verticalAlign=middle;resizable=0;points=[];autosize=1;strokeColor=none;fillColor=none;" vertex="1" parent="1">
          <mxGeometry x="67.5" y="1870" width="150" height="30" as="geometry" />
        </mxCell>
        <mxCell id="fpaLrNx99ippCSUbvsSf-88" value="Dostawca danych dotyczących połączeń kolejowych" style="rounded=0;whiteSpace=wrap;html=1;" vertex="1" parent="1">
          <mxGeometry x="172.5" y="2462" width="730" height="60" as="geometry" />
        </mxCell>
        <mxCell id="fpaLrNx99ippCSUbvsSf-89" style="edgeStyle=orthogonalEdgeStyle;rounded=0;orthogonalLoop=1;jettySize=auto;html=1;entryX=0.5;entryY=0;entryDx=0;entryDy=0;dashed=1;" edge="1" source="fpaLrNx99ippCSUbvsSf-79" target="fpaLrNx99ippCSUbvsSf-88" parent="1">
          <mxGeometry relative="1" as="geometry">
            <Array as="points">
              <mxPoint x="447.5" y="2302" />
              <mxPoint x="447.5" y="2302" />
            </Array>
          </mxGeometry>
        </mxCell>
        <mxCell id="fpaLrNx99ippCSUbvsSf-90" style="edgeStyle=orthogonalEdgeStyle;rounded=0;orthogonalLoop=1;jettySize=auto;html=1;entryX=0.5;entryY=1;entryDx=0;entryDy=0;entryPerimeter=0;dashed=1;" edge="1" source="fpaLrNx99ippCSUbvsSf-88" target="fpaLrNx99ippCSUbvsSf-81" parent="1">
          <mxGeometry relative="1" as="geometry">
            <Array as="points">
              <mxPoint x="542.5" y="2352" />
              <mxPoint x="597.5" y="2352" />
            </Array>
          </mxGeometry>
        </mxCell>
        <mxCell id="fpaLrNx99ippCSUbvsSf-91" style="edgeStyle=orthogonalEdgeStyle;rounded=0;orthogonalLoop=1;jettySize=auto;html=1;entryX=0.5;entryY=1;entryDx=0;entryDy=0;entryPerimeter=0;" edge="1" source="fpaLrNx99ippCSUbvsSf-83" target="fpaLrNx99ippCSUbvsSf-74" parent="1">
          <mxGeometry relative="1" as="geometry" />
        </mxCell>
        <mxCell id="fpaLrNx99ippCSUbvsSf-92" style="edgeStyle=orthogonalEdgeStyle;rounded=0;orthogonalLoop=1;jettySize=auto;html=1;dashed=1;" edge="1" source="fpaLrNx99ippCSUbvsSf-93" parent="1">
          <mxGeometry relative="1" as="geometry">
            <mxPoint x="412.5" y="2262" as="targetPoint" />
          </mxGeometry>
        </mxCell>
        <mxCell id="fpaLrNx99ippCSUbvsSf-93" value="Parametry wyszukiwania" style="shape=mxgraph.bpmn.data;labelPosition=center;verticalLabelPosition=bottom;align=center;verticalAlign=top;whiteSpace=wrap;size=15;html=1;" vertex="1" parent="1">
          <mxGeometry x="302.5" y="2352" width="40" height="60" as="geometry" />
        </mxCell>
        <mxCell id="fpaLrNx99ippCSUbvsSf-97" style="edgeStyle=orthogonalEdgeStyle;rounded=0;orthogonalLoop=1;jettySize=auto;html=1;" edge="1" parent="1" source="fpaLrNx99ippCSUbvsSf-95" target="fpaLrNx99ippCSUbvsSf-39">
          <mxGeometry relative="1" as="geometry">
            <Array as="points">
              <mxPoint x="745" y="1295" />
            </Array>
          </mxGeometry>
        </mxCell>
        <mxCell id="fpaLrNx99ippCSUbvsSf-98" value="Nie&lt;div&gt;&lt;br&gt;&lt;/div&gt;" style="edgeLabel;html=1;align=center;verticalAlign=middle;resizable=0;points=[];" vertex="1" connectable="0" parent="fpaLrNx99ippCSUbvsSf-97">
          <mxGeometry x="-0.7539" y="1" relative="1" as="geometry">
            <mxPoint as="offset" />
          </mxGeometry>
        </mxCell>
        <mxCell id="fpaLrNx99ippCSUbvsSf-101" style="edgeStyle=orthogonalEdgeStyle;rounded=0;orthogonalLoop=1;jettySize=auto;html=1;" edge="1" parent="1" source="fpaLrNx99ippCSUbvsSf-99" target="fpaLrNx99ippCSUbvsSf-39">
          <mxGeometry relative="1" as="geometry">
            <Array as="points">
              <mxPoint x="967" y="1390" />
            </Array>
          </mxGeometry>
        </mxCell>
        <mxCell id="fpaLrNx99ippCSUbvsSf-104" style="edgeStyle=orthogonalEdgeStyle;rounded=0;orthogonalLoop=1;jettySize=auto;html=1;entryX=0.369;entryY=-0.047;entryDx=0;entryDy=0;entryPerimeter=0;dashed=1;" edge="1" parent="1" source="fpaLrNx99ippCSUbvsSf-35" target="fpaLrNx99ippCSUbvsSf-36">
          <mxGeometry relative="1" as="geometry" />
        </mxCell>
        <mxCell id="fpaLrNx99ippCSUbvsSf-105" value="Baza danych" style="shape=datastore;whiteSpace=wrap;html=1;labelPosition=center;verticalLabelPosition=bottom;align=center;verticalAlign=top;" vertex="1" parent="1">
          <mxGeometry x="890" y="1620" width="70" height="70" as="geometry" />
        </mxCell>
        <mxCell id="fpaLrNx99ippCSUbvsSf-107" style="edgeStyle=orthogonalEdgeStyle;rounded=0;orthogonalLoop=1;jettySize=auto;html=1;entryX=0.419;entryY=-0.048;entryDx=0;entryDy=0;entryPerimeter=0;dashed=1;" edge="1" parent="1" source="fpaLrNx99ippCSUbvsSf-99" target="fpaLrNx99ippCSUbvsSf-105">
          <mxGeometry relative="1" as="geometry">
            <Array as="points">
              <mxPoint x="920" y="1580" />
              <mxPoint x="919" y="1580" />
            </Array>
          </mxGeometry>
        </mxCell>
        <mxCell id="fpaLrNx99ippCSUbvsSf-108" style="edgeStyle=orthogonalEdgeStyle;rounded=0;orthogonalLoop=1;jettySize=auto;html=1;entryX=0.741;entryY=1.029;entryDx=0;entryDy=0;entryPerimeter=0;dashed=1;" edge="1" parent="1" source="fpaLrNx99ippCSUbvsSf-105" target="fpaLrNx99ippCSUbvsSf-99">
          <mxGeometry relative="1" as="geometry">
            <Array as="points">
              <mxPoint x="940" y="1560" />
              <mxPoint x="949" y="1560" />
            </Array>
          </mxGeometry>
        </mxCell>
      </root>
    </mxGraphModel>
  </diagram>
</mxfile>
